<!DOCTYPE svg PUBLIC "-//W3C//DTD SVG 20010904//EN" "http://www.w3.org/TR/2001/REC-SVG-20010904/DTD/svg10.dtd">
<svg version="1.0" xmlns="http://www.w3.org/2000/svg" width="300px" height="190px" viewBox="0 0 3000 1900" preserveAspectRatio="xMidYMid meet">
<g id="layer101" fill="#181818" stroke="none">
 <path d="M0 950 l0 -950 1500 0 1500 0 0 950 0 950 -1500 0 -1500 0 0 -950z m573 640 c18 -22 42 -27 32 -7 -4 6 9 -4 28 -25 74 -77 77 -226 6 -301 -17 -18 -27 -26 -23 -18 5 11 3 13 -10 8 -10 -4 -22 -7 -27 -7 -6 0 -8 -4 -4 -9 8 -14 -31 -23 -67 -16 -23 6 -27 9 -17 17 10 7 8 8 -8 5 -13 -3 -26 0 -30 5 -4 7 -1 8 8 3 11 -6 11 -5 2 5 -24 26 -33 -2 -35 -108 l-2 -107 -6 105 -6 105 -2 -92 -2 -93 -45 0 c-42 0 -61 13 -32 22 9 4 13 69 18 264 l5 259 0 -252 c-1 -138 2 -249 7 -246 4 2 7 110 7 240 0 230 0 235 20 230 14 -4 20 0 21 11 0 13 2 13 8 -3 5 -11 6 -24 3 -29 -2 -5 1 -6 9 -4 8 3 13 10 12 16 -1 5 5 16 14 24 12 9 15 9 9 1 -4 -7 -3 -13 2 -13 6 0 12 7 16 15 8 23 68 19 89 -5z m342 -18 l-20 -5 20 -8 c17 -6 17 -8 3 -8 -10 -1 -18 -6 -18 -12 0 -5 -6 -7 -12 -3 -7 5 -3 -4 9 -19 12 -15 43 -81 69 -147 26 -66 49 -118 51 -116 5 5 -74 202 -98 246 -19 35 -19 35 0 12 11 -12 54 -111 97 -220 43 -108 84 -203 93 -209 12 -11 13 -13 0 -13 -12 0 -12 -2 1 -10 10 -7 -6 -10 -54 -10 l-69 0 23 25 23 25 -18 60 c-10 33 -20 58 -22 56 -3 -2 3 -29 13 -60 14 -45 15 -59 5 -69 -10 -9 -11 -9 -6 4 5 14 -34 164 -64 242 -4 12 -19 -24 -45 -112 -22 -72 -41 -129 -44 -127 -2 3 6 38 18 78 13 40 29 93 37 118 7 24 10 40 5 35 -4 -6 -23 -59 -42 -118 -30 -95 -33 -110 -20 -121 34 -26 21 -36 -43 -36 -48 0 -64 3 -64 14 0 8 6 12 13 9 13 -5 54 51 54 72 -1 6 -10 -7 -21 -27 -11 -21 -22 -38 -25 -38 -2 0 0 9 6 21 6 11 38 89 70 172 57 148 58 153 44 187 -8 19 -25 46 -37 60 -17 18 -17 21 -3 10 11 -8 27 -28 38 -45 10 -16 18 -25 18 -18 0 17 -50 73 -85 94 l-30 19 75 -1 c41 -1 66 -4 55 -7z m314 -666 c-9 -8 -10 -6 -5 7 3 10 7 125 8 255 l3 237 2 -244 c3 -177 0 -248 -8 -255z m69 472 c-2 -15 2 -23 12 -23 8 0 15 5 15 12 0 6 4 15 9 20 5 5 6 2 1 -6 -6 -10 -2 -11 16 -5 41 15 97 9 126 -13 51 -37 68 -80 68 -167 0 -45 2 -69 6 -55 19 66 5 143 -37 205 -15 21 -19 32 -9 24 39 -32 60 -92 59 -170 0 -80 -14 -119 -55 -155 -12 -11 -19 -14 -14 -6 6 11 4 13 -11 7 -42 -17 -93 -18 -124 -2 -18 8 -36 13 -41 10 -5 -3 -9 -50 -9 -105 l0 -99 73 -2 72 -2 -75 -6 -75 -6 73 -2 c40 -1 72 -6 72 -12 0 -5 -13 -10 -30 -10 -31 0 -60 -33 -40 -45 6 -4 10 -96 10 -246 l0 -239 -50 0 c-49 0 -50 1 -50 31 0 19 4 28 11 24 5 -4 19 1 30 11 18 16 19 32 19 213 0 164 -3 200 -16 219 -9 13 -22 21 -30 18 -8 -3 -13 -2 -13 2 4 24 -4 33 -11 12 l-8 -25 -1 28 c-1 25 -4 27 -43 28 l-43 2 40 7 40 7 -38 2 -39 1 31 26 31 26 0 234 c0 227 1 234 20 234 11 0 20 5 20 10 0 6 3 10 6 10 3 0 4 -10 2 -22z m691 -20 c1 7 15 12 37 12 21 0 33 -4 29 -10 -3 -5 -2 -10 4 -10 5 0 12 6 14 13 3 7 6 5 6 -5 1 -11 -6 -18 -18 -18 -18 0 -20 -10 -23 -135 -3 -133 -3 -135 -32 -162 -16 -16 -25 -22 -22 -15 6 10 1 11 -21 5 -77 -22 -210 7 -197 42 7 18 12 18 44 0 28 -16 53 -20 30 -5 -11 7 -3 9 25 4 55 -8 95 22 95 72 l0 34 -58 0 c-45 0 -65 5 -82 20 -26 22 -45 27 -34 8 4 -7 -5 -2 -19 11 -35 32 -38 106 -6 142 11 13 17 18 13 10 -6 -11 -3 -12 12 -6 25 12 92 12 123 1 18 -6 22 -5 15 5 -7 12 -5 12 9 1 9 -8 15 -19 14 -24 -1 -6 4 -13 11 -15 7 -3 12 -1 11 4 -1 4 0 19 1 33 l2 25 8 -25 c4 -14 8 -19 9 -12z m516 4 l-20 -5 20 -8 c17 -6 17 -8 3 -8 -10 -1 -18 -6 -18 -12 0 -5 -6 -7 -12 -3 -7 5 -4 -4 8 -18 11 -14 40 -76 64 -137 24 -61 45 -109 47 -107 5 5 -75 205 -94 236 -15 23 -15 24 0 12 17 -14 177 -409 177 -437 0 -8 6 -18 14 -21 8 -3 13 -11 11 -17 -11 -43 -20 -57 -35 -57 -17 0 -19 -13 -22 -135 -3 -133 -3 -135 -32 -162 -16 -16 -25 -22 -22 -15 6 10 1 11 -21 5 -81 -22 -209 7 -197 45 5 16 5 16 -6 -1 -6 -9 -8 -23 -4 -30 5 -9 4 -9 -6 0 -10 9 -8 18 10 45 12 18 19 25 16 16 -3 -10 -4 -18 -2 -18 3 0 12 -3 22 -7 13 -5 15 -3 9 7 -5 9 -4 11 4 6 6 -4 9 -11 6 -16 -8 -13 60 -32 88 -25 14 4 37 19 52 35 21 21 26 35 22 61 l-4 34 -1 -36 c-1 -23 -10 -43 -24 -55 l-22 -19 17 25 c9 13 17 37 17 52 0 27 -1 28 -57 29 -48 0 -120 16 -88 18 6 1 3 6 -5 11 -21 14 -33 12 -24 -2 4 -7 -4 -3 -18 10 -38 35 -42 74 -13 145 6 13 2 17 -16 18 -23 0 -23 1 -4 9 l20 9 -20 1 c-18 1 -19 1 -2 11 9 5 17 18 18 27 0 9 29 89 63 177 l64 160 -20 40 c-27 53 -47 75 -70 75 -11 0 -18 7 -18 20 0 18 6 20 73 19 39 -1 63 -4 52 -7z m-727 -839 c-2 -99 0 -176 4 -170 4 7 8 114 8 240 0 189 2 227 14 227 26 0 46 -12 40 -24 -3 -6 4 0 16 14 12 14 19 20 16 13 -5 -9 3 -9 31 -1 26 7 48 7 75 -1 21 -7 42 -10 47 -7 10 7 33 -19 54 -60 41 -80 26 -214 -29 -264 -15 -14 -24 -19 -19 -11 6 11 4 13 -11 7 -47 -19 -93 -18 -133 3 -23 11 -40 17 -40 13 1 -4 0 -56 -2 -117 l-3 -110 -6 105 -6 105 -2 -92 -2 -93 -50 0 c-37 0 -50 4 -50 14 0 8 5 18 12 22 7 5 8 2 3 -7 -7 -12 -5 -12 6 -1 11 10 15 67 19 265 2 139 6 221 8 182 2 -38 2 -152 0 -252z m-1198 297 c0 -5 -11 -10 -24 -10 -13 0 -32 -3 -40 -6 -14 -5 -14 -9 -4 -22 7 -9 9 -13 3 -10 -7 4 -9 -74 -7 -228 l3 -234 -50 0 c-40 0 -51 4 -51 16 0 8 5 12 11 9 5 -4 19 1 30 11 18 16 19 32 19 220 l0 202 -30 25 c-16 14 -30 28 -30 31 0 3 38 6 85 6 50 0 85 -4 85 -10z m430 0 c0 -5 -9 -10 -19 -10 -11 0 -26 -7 -34 -15 -8 -8 -18 -11 -23 -7 -5 4 -1 -2 9 -14 14 -17 17 -42 17 -152 l0 -132 -65 0 c-49 0 -65 3 -65 14 0 7 11 16 25 18 31 6 32 0 3 -12 -18 -7 -19 -9 -5 -9 10 -1 29 10 42 24 23 22 25 31 25 128 0 90 -3 108 -21 131 -12 15 -30 26 -45 26 -13 0 -24 5 -24 10 0 6 37 10 90 10 53 0 90 -4 90 -10z m-68 -417 c-16 -6 -6 -23 14 -23 10 0 12 5 8 13 -5 8 -2 8 9 -2 21 -17 22 -41 1 -67 -14 -18 -15 -18 -4 4 6 13 9 31 7 40 -4 14 -5 13 -6 -3 -2 -27 -32 -64 -38 -47 -3 6 -9 12 -14 12 -6 0 -7 -6 -3 -12 5 -9 2 -9 -9 1 -17 14 -24 66 -9 75 4 2 7 -10 6 -27 -1 -18 1 -22 3 -9 2 12 9 22 14 22 5 0 8 3 8 8 -3 15 1 22 14 21 9 0 9 -2 -1 -6z"/>
 <path d="M445 1529 l-35 -31 0 -87 c0 -74 3 -91 19 -105 11 -10 24 -16 28 -13 5 3 15 1 23 -5 12 -8 11 -8 -5 -3 -11 3 -16 3 -12 -2 11 -11 86 -10 79 1 -3 5 2 7 11 3 10 -4 25 4 41 23 58 69 36 197 -41 239 -36 19 -71 13 -108 -20z"/>
 <path d="M1317 1322 c-25 -26 -27 -34 -27 -113 0 -80 2 -87 28 -112 26 -25 49 -37 39 -19 -3 4 12 7 33 7 42 0 41 -10 0 -18 -24 -4 -23 -4 4 -6 21 -1 39 9 67 38 37 37 39 42 39 102 0 106 -44 157 -116 138 -67 -19 -74 -31 -74 -127 0 -67 4 -90 18 -106 17 -21 17 -21 -5 -2 -21 17 -23 28 -23 107 0 85 1 88 31 113 17 14 27 26 22 26 -5 0 -21 -13 -36 -28z"/>
 <path d="M1839 1343 c-11 -15 -11 -16 1 -5 16 13 66 16 74 4 3 -5 -8 -6 -25 -4 -20 3 -37 -2 -50 -14 -12 -11 -24 -17 -28 -14 -10 8 -14 -41 -4 -51 6 -6 8 3 7 23 -3 30 -3 29 6 -6 12 -47 27 -66 49 -65 11 0 9 3 -6 9 -34 14 -28 20 9 9 18 -5 45 -9 60 -9 26 0 28 3 28 37 0 20 -8 46 -17 57 -18 21 -18 21 5 2 14 -13 23 -31 24 -55 l1 -36 4 34 c4 26 -1 39 -21 60 -15 15 -24 29 -22 32 2 2 -15 5 -38 7 -32 2 -47 -2 -57 -15z"/>
 <path d="M2510 1107 c0 -8 -16 -63 -35 -123 -22 -70 -30 -111 -24 -115 6 -3 10 -9 10 -13 -3 -18 1 -19 9 -1 7 17 9 17 9 3 1 -10 1 -21 0 -24 -1 -10 24 -24 41 -24 13 0 13 1 0 10 -8 5 -10 10 -4 10 6 0 19 -9 29 -20 25 -27 35 -25 35 8 0 16 3 32 7 36 4 3 8 16 10 27 4 26 -65 239 -78 239 -5 0 -9 -6 -9 -13z"/>
 <path d="M2534 801 c6 -8 0 -10 -18 -5 -14 3 -37 3 -50 0 -49 -12 -41 -137 9 -143 17 -3 17 -2 -2 7 -35 14 -27 19 15 9 73 -17 82 -13 82 30 0 21 -6 44 -14 50 -8 7 -13 21 -11 31 2 11 -1 23 -7 26 -7 4 -8 2 -4 -5z"/>
 <path d="M1857 762 c-25 -26 -27 -34 -27 -113 0 -82 1 -86 30 -114 44 -42 98 -41 142 2 26 26 32 42 36 87 6 69 -1 96 -34 135 -24 29 -53 44 -39 21 6 -10 -12 -8 -66 6 -8 2 -27 -9 -42 -24z"/>
 </g>

</svg>